G04*
G04 #@! TF.GenerationSoftware,Altium Limited,Altium Designer,22.7.1 (60)*
G04*
G04 Layer_Color=8388736*
%FSLAX43Y43*%
%MOMM*%
G71*
G04*
G04 #@! TF.SameCoordinates,FFDFB18E-E83D-4000-AC95-9D070D3E5886*
G04*
G04*
G04 #@! TF.FilePolarity,Negative*
G04*
G01*
G75*
G04:AMPARAMS|DCode=20|XSize=1.3mm|YSize=1.93mm|CornerRadius=0.2mm|HoleSize=0mm|Usage=FLASHONLY|Rotation=0.000|XOffset=0mm|YOffset=0mm|HoleType=Round|Shape=RoundedRectangle|*
%AMROUNDEDRECTD20*
21,1,1.300,1.530,0,0,0.0*
21,1,0.900,1.930,0,0,0.0*
1,1,0.400,0.450,-0.765*
1,1,0.400,-0.450,-0.765*
1,1,0.400,-0.450,0.765*
1,1,0.400,0.450,0.765*
%
%ADD20ROUNDEDRECTD20*%
G04:AMPARAMS|DCode=21|XSize=1.55mm|YSize=3.53mm|CornerRadius=0.231mm|HoleSize=0mm|Usage=FLASHONLY|Rotation=270.000|XOffset=0mm|YOffset=0mm|HoleType=Round|Shape=RoundedRectangle|*
%AMROUNDEDRECTD21*
21,1,1.550,3.068,0,0,270.0*
21,1,1.087,3.530,0,0,270.0*
1,1,0.463,-1.534,-0.544*
1,1,0.463,-1.534,0.544*
1,1,0.463,1.534,0.544*
1,1,0.463,1.534,-0.544*
%
%ADD21ROUNDEDRECTD21*%
G04:AMPARAMS|DCode=22|XSize=1.01mm|YSize=1.56mm|CornerRadius=0.164mm|HoleSize=0mm|Usage=FLASHONLY|Rotation=270.000|XOffset=0mm|YOffset=0mm|HoleType=Round|Shape=RoundedRectangle|*
%AMROUNDEDRECTD22*
21,1,1.010,1.233,0,0,270.0*
21,1,0.683,1.560,0,0,270.0*
1,1,0.328,-0.616,-0.341*
1,1,0.328,-0.616,0.341*
1,1,0.328,0.616,0.341*
1,1,0.328,0.616,-0.341*
%
%ADD22ROUNDEDRECTD22*%
G04:AMPARAMS|DCode=23|XSize=1.63mm|YSize=1.12mm|CornerRadius=0.178mm|HoleSize=0mm|Usage=FLASHONLY|Rotation=0.000|XOffset=0mm|YOffset=0mm|HoleType=Round|Shape=RoundedRectangle|*
%AMROUNDEDRECTD23*
21,1,1.630,0.765,0,0,0.0*
21,1,1.275,1.120,0,0,0.0*
1,1,0.355,0.638,-0.383*
1,1,0.355,-0.638,-0.383*
1,1,0.355,-0.638,0.383*
1,1,0.355,0.638,0.383*
%
%ADD23ROUNDEDRECTD23*%
G04:AMPARAMS|DCode=24|XSize=1.7mm|YSize=1.35mm|CornerRadius=0.206mm|HoleSize=0mm|Usage=FLASHONLY|Rotation=270.000|XOffset=0mm|YOffset=0mm|HoleType=Round|Shape=RoundedRectangle|*
%AMROUNDEDRECTD24*
21,1,1.700,0.938,0,0,270.0*
21,1,1.288,1.350,0,0,270.0*
1,1,0.413,-0.469,-0.644*
1,1,0.413,-0.469,0.644*
1,1,0.413,0.469,0.644*
1,1,0.413,0.469,-0.644*
%
%ADD24ROUNDEDRECTD24*%
G04:AMPARAMS|DCode=25|XSize=0.78mm|YSize=2.27mm|CornerRadius=0.135mm|HoleSize=0mm|Usage=FLASHONLY|Rotation=270.000|XOffset=0mm|YOffset=0mm|HoleType=Round|Shape=RoundedRectangle|*
%AMROUNDEDRECTD25*
21,1,0.780,2.000,0,0,270.0*
21,1,0.510,2.270,0,0,270.0*
1,1,0.270,-1.000,-0.255*
1,1,0.270,-1.000,0.255*
1,1,0.270,1.000,0.255*
1,1,0.270,1.000,-0.255*
%
%ADD25ROUNDEDRECTD25*%
G04:AMPARAMS|DCode=26|XSize=1.3mm|YSize=1.93mm|CornerRadius=0.2mm|HoleSize=0mm|Usage=FLASHONLY|Rotation=90.000|XOffset=0mm|YOffset=0mm|HoleType=Round|Shape=RoundedRectangle|*
%AMROUNDEDRECTD26*
21,1,1.300,1.530,0,0,90.0*
21,1,0.900,1.930,0,0,90.0*
1,1,0.400,0.765,0.450*
1,1,0.400,0.765,-0.450*
1,1,0.400,-0.765,-0.450*
1,1,0.400,-0.765,0.450*
%
%ADD26ROUNDEDRECTD26*%
G04:AMPARAMS|DCode=27|XSize=1.04mm|YSize=1.13mm|CornerRadius=0.168mm|HoleSize=0mm|Usage=FLASHONLY|Rotation=180.000|XOffset=0mm|YOffset=0mm|HoleType=Round|Shape=RoundedRectangle|*
%AMROUNDEDRECTD27*
21,1,1.040,0.795,0,0,180.0*
21,1,0.705,1.130,0,0,180.0*
1,1,0.335,-0.353,0.398*
1,1,0.335,0.353,0.398*
1,1,0.335,0.353,-0.398*
1,1,0.335,-0.353,-0.398*
%
%ADD27ROUNDEDRECTD27*%
G04:AMPARAMS|DCode=28|XSize=2.2mm|YSize=1.5mm|CornerRadius=0.225mm|HoleSize=0mm|Usage=FLASHONLY|Rotation=0.000|XOffset=0mm|YOffset=0mm|HoleType=Round|Shape=RoundedRectangle|*
%AMROUNDEDRECTD28*
21,1,2.200,1.050,0,0,0.0*
21,1,1.750,1.500,0,0,0.0*
1,1,0.450,0.875,-0.525*
1,1,0.450,-0.875,-0.525*
1,1,0.450,-0.875,0.525*
1,1,0.450,0.875,0.525*
%
%ADD28ROUNDEDRECTD28*%
%ADD29O,1.900X0.350*%
%ADD30O,0.350X1.900*%
G04:AMPARAMS|DCode=31|XSize=0.6mm|YSize=0.6mm|CornerRadius=0.113mm|HoleSize=0mm|Usage=FLASHONLY|Rotation=90.000|XOffset=0mm|YOffset=0mm|HoleType=Round|Shape=RoundedRectangle|*
%AMROUNDEDRECTD31*
21,1,0.600,0.375,0,0,90.0*
21,1,0.375,0.600,0,0,90.0*
1,1,0.225,0.188,0.188*
1,1,0.225,0.188,-0.188*
1,1,0.225,-0.188,-0.188*
1,1,0.225,-0.188,0.188*
%
%ADD31ROUNDEDRECTD31*%
G04:AMPARAMS|DCode=32|XSize=1.46mm|YSize=1.91mm|CornerRadius=0.22mm|HoleSize=0mm|Usage=FLASHONLY|Rotation=0.000|XOffset=0mm|YOffset=0mm|HoleType=Round|Shape=RoundedRectangle|*
%AMROUNDEDRECTD32*
21,1,1.460,1.470,0,0,0.0*
21,1,1.020,1.910,0,0,0.0*
1,1,0.440,0.510,-0.735*
1,1,0.440,-0.510,-0.735*
1,1,0.440,-0.510,0.735*
1,1,0.440,0.510,0.735*
%
%ADD32ROUNDEDRECTD32*%
G04:AMPARAMS|DCode=33|XSize=1.55mm|YSize=0.55mm|CornerRadius=0.106mm|HoleSize=0mm|Usage=FLASHONLY|Rotation=0.000|XOffset=0mm|YOffset=0mm|HoleType=Round|Shape=RoundedRectangle|*
%AMROUNDEDRECTD33*
21,1,1.550,0.338,0,0,0.0*
21,1,1.337,0.550,0,0,0.0*
1,1,0.213,0.669,-0.169*
1,1,0.213,-0.669,-0.169*
1,1,0.213,-0.669,0.169*
1,1,0.213,0.669,0.169*
%
%ADD33ROUNDEDRECTD33*%
G04:AMPARAMS|DCode=34|XSize=1.84mm|YSize=2.27mm|CornerRadius=0.268mm|HoleSize=0mm|Usage=FLASHONLY|Rotation=90.000|XOffset=0mm|YOffset=0mm|HoleType=Round|Shape=RoundedRectangle|*
%AMROUNDEDRECTD34*
21,1,1.840,1.735,0,0,90.0*
21,1,1.305,2.270,0,0,90.0*
1,1,0.535,0.868,0.653*
1,1,0.535,0.868,-0.653*
1,1,0.535,-0.868,-0.653*
1,1,0.535,-0.868,0.653*
%
%ADD34ROUNDEDRECTD34*%
%ADD35O,2.600X0.800*%
G04:AMPARAMS|DCode=36|XSize=0.71mm|YSize=1.36mm|CornerRadius=0.126mm|HoleSize=0mm|Usage=FLASHONLY|Rotation=0.000|XOffset=0mm|YOffset=0mm|HoleType=Round|Shape=RoundedRectangle|*
%AMROUNDEDRECTD36*
21,1,0.710,1.108,0,0,0.0*
21,1,0.458,1.360,0,0,0.0*
1,1,0.253,0.229,-0.554*
1,1,0.253,-0.229,-0.554*
1,1,0.253,-0.229,0.554*
1,1,0.253,0.229,0.554*
%
%ADD36ROUNDEDRECTD36*%
G04:AMPARAMS|DCode=37|XSize=2.6mm|YSize=1.6mm|CornerRadius=0.425mm|HoleSize=0mm|Usage=FLASHONLY|Rotation=270.000|XOffset=0mm|YOffset=0mm|HoleType=Round|Shape=RoundedRectangle|*
%AMROUNDEDRECTD37*
21,1,2.600,0.750,0,0,270.0*
21,1,1.750,1.600,0,0,270.0*
1,1,0.850,-0.375,-0.875*
1,1,0.850,-0.375,0.875*
1,1,0.850,0.375,0.875*
1,1,0.850,0.375,-0.875*
%
%ADD37ROUNDEDRECTD37*%
G04:AMPARAMS|DCode=38|XSize=1.04mm|YSize=1.13mm|CornerRadius=0.168mm|HoleSize=0mm|Usage=FLASHONLY|Rotation=90.000|XOffset=0mm|YOffset=0mm|HoleType=Round|Shape=RoundedRectangle|*
%AMROUNDEDRECTD38*
21,1,1.040,0.795,0,0,90.0*
21,1,0.705,1.130,0,0,90.0*
1,1,0.335,0.398,0.353*
1,1,0.335,0.398,-0.353*
1,1,0.335,-0.398,-0.353*
1,1,0.335,-0.398,0.353*
%
%ADD38ROUNDEDRECTD38*%
G04:AMPARAMS|DCode=39|XSize=0.97mm|YSize=1.3mm|CornerRadius=0.268mm|HoleSize=0mm|Usage=FLASHONLY|Rotation=90.000|XOffset=0mm|YOffset=0mm|HoleType=Round|Shape=RoundedRectangle|*
%AMROUNDEDRECTD39*
21,1,0.970,0.765,0,0,90.0*
21,1,0.435,1.300,0,0,90.0*
1,1,0.535,0.383,0.217*
1,1,0.535,0.383,-0.217*
1,1,0.535,-0.383,-0.217*
1,1,0.535,-0.383,0.217*
%
%ADD39ROUNDEDRECTD39*%
G04:AMPARAMS|DCode=40|XSize=1.63mm|YSize=1.12mm|CornerRadius=0.178mm|HoleSize=0mm|Usage=FLASHONLY|Rotation=90.000|XOffset=0mm|YOffset=0mm|HoleType=Round|Shape=RoundedRectangle|*
%AMROUNDEDRECTD40*
21,1,1.630,0.765,0,0,90.0*
21,1,1.275,1.120,0,0,90.0*
1,1,0.355,0.383,0.638*
1,1,0.355,0.383,-0.638*
1,1,0.355,-0.383,-0.638*
1,1,0.355,-0.383,0.638*
%
%ADD40ROUNDEDRECTD40*%
G04:AMPARAMS|DCode=41|XSize=1.31mm|YSize=1.56mm|CornerRadius=0.201mm|HoleSize=0mm|Usage=FLASHONLY|Rotation=180.000|XOffset=0mm|YOffset=0mm|HoleType=Round|Shape=RoundedRectangle|*
%AMROUNDEDRECTD41*
21,1,1.310,1.158,0,0,180.0*
21,1,0.907,1.560,0,0,180.0*
1,1,0.403,-0.454,0.579*
1,1,0.403,0.454,0.579*
1,1,0.403,0.454,-0.579*
1,1,0.403,-0.454,-0.579*
%
%ADD41ROUNDEDRECTD41*%
G04:AMPARAMS|DCode=42|XSize=1.38mm|YSize=1.97mm|CornerRadius=0.21mm|HoleSize=0mm|Usage=FLASHONLY|Rotation=180.000|XOffset=0mm|YOffset=0mm|HoleType=Round|Shape=RoundedRectangle|*
%AMROUNDEDRECTD42*
21,1,1.380,1.550,0,0,180.0*
21,1,0.960,1.970,0,0,180.0*
1,1,0.420,-0.480,0.775*
1,1,0.420,0.480,0.775*
1,1,0.420,0.480,-0.775*
1,1,0.420,-0.480,-0.775*
%
%ADD42ROUNDEDRECTD42*%
G04:AMPARAMS|DCode=43|XSize=11.53mm|YSize=8.99mm|CornerRadius=1.161mm|HoleSize=0mm|Usage=FLASHONLY|Rotation=270.000|XOffset=0mm|YOffset=0mm|HoleType=Round|Shape=RoundedRectangle|*
%AMROUNDEDRECTD43*
21,1,11.530,6.668,0,0,270.0*
21,1,9.208,8.990,0,0,270.0*
1,1,2.322,-3.334,-4.604*
1,1,2.322,-3.334,4.604*
1,1,2.322,3.334,4.604*
1,1,2.322,3.334,-4.604*
%
%ADD43ROUNDEDRECTD43*%
G04:AMPARAMS|DCode=44|XSize=2.18mm|YSize=3.91mm|CornerRadius=0.31mm|HoleSize=0mm|Usage=FLASHONLY|Rotation=270.000|XOffset=0mm|YOffset=0mm|HoleType=Round|Shape=RoundedRectangle|*
%AMROUNDEDRECTD44*
21,1,2.180,3.290,0,0,270.0*
21,1,1.560,3.910,0,0,270.0*
1,1,0.620,-1.645,-0.780*
1,1,0.620,-1.645,0.780*
1,1,0.620,1.645,0.780*
1,1,0.620,1.645,-0.780*
%
%ADD44ROUNDEDRECTD44*%
G04:AMPARAMS|DCode=45|XSize=12.6mm|YSize=3.25mm|CornerRadius=0.838mm|HoleSize=0mm|Usage=FLASHONLY|Rotation=0.000|XOffset=0mm|YOffset=0mm|HoleType=Round|Shape=RoundedRectangle|*
%AMROUNDEDRECTD45*
21,1,12.600,1.575,0,0,0.0*
21,1,10.925,3.250,0,0,0.0*
1,1,1.675,5.463,-0.788*
1,1,1.675,-5.463,-0.788*
1,1,1.675,-5.463,0.788*
1,1,1.675,5.463,0.788*
%
%ADD45ROUNDEDRECTD45*%
G04:AMPARAMS|DCode=46|XSize=1.46mm|YSize=1.91mm|CornerRadius=0.22mm|HoleSize=0mm|Usage=FLASHONLY|Rotation=270.000|XOffset=0mm|YOffset=0mm|HoleType=Round|Shape=RoundedRectangle|*
%AMROUNDEDRECTD46*
21,1,1.460,1.470,0,0,270.0*
21,1,1.020,1.910,0,0,270.0*
1,1,0.440,-0.735,-0.510*
1,1,0.440,-0.735,0.510*
1,1,0.440,0.735,0.510*
1,1,0.440,0.735,-0.510*
%
%ADD46ROUNDEDRECTD46*%
G04:AMPARAMS|DCode=47|XSize=2.6mm|YSize=1.6mm|CornerRadius=0.425mm|HoleSize=0mm|Usage=FLASHONLY|Rotation=0.000|XOffset=0mm|YOffset=0mm|HoleType=Round|Shape=RoundedRectangle|*
%AMROUNDEDRECTD47*
21,1,2.600,0.750,0,0,0.0*
21,1,1.750,1.600,0,0,0.0*
1,1,0.850,0.875,-0.375*
1,1,0.850,-0.875,-0.375*
1,1,0.850,-0.875,0.375*
1,1,0.850,0.875,0.375*
%
%ADD47ROUNDEDRECTD47*%
G04:AMPARAMS|DCode=48|XSize=0.71mm|YSize=1.45mm|CornerRadius=0.126mm|HoleSize=0mm|Usage=FLASHONLY|Rotation=0.000|XOffset=0mm|YOffset=0mm|HoleType=Round|Shape=RoundedRectangle|*
%AMROUNDEDRECTD48*
21,1,0.710,1.198,0,0,0.0*
21,1,0.458,1.450,0,0,0.0*
1,1,0.253,0.229,-0.599*
1,1,0.253,-0.229,-0.599*
1,1,0.253,-0.229,0.599*
1,1,0.253,0.229,0.599*
%
%ADD48ROUNDEDRECTD48*%
G04:AMPARAMS|DCode=49|XSize=1.84mm|YSize=2.27mm|CornerRadius=0.268mm|HoleSize=0mm|Usage=FLASHONLY|Rotation=180.000|XOffset=0mm|YOffset=0mm|HoleType=Round|Shape=RoundedRectangle|*
%AMROUNDEDRECTD49*
21,1,1.840,1.735,0,0,180.0*
21,1,1.305,2.270,0,0,180.0*
1,1,0.535,-0.653,0.868*
1,1,0.535,0.653,0.868*
1,1,0.535,0.653,-0.868*
1,1,0.535,-0.653,-0.868*
%
%ADD49ROUNDEDRECTD49*%
G04:AMPARAMS|DCode=50|XSize=2.05mm|YSize=3.5mm|CornerRadius=0.294mm|HoleSize=0mm|Usage=FLASHONLY|Rotation=180.000|XOffset=0mm|YOffset=0mm|HoleType=Round|Shape=RoundedRectangle|*
%AMROUNDEDRECTD50*
21,1,2.050,2.913,0,0,180.0*
21,1,1.463,3.500,0,0,180.0*
1,1,0.588,-0.731,1.456*
1,1,0.588,0.731,1.456*
1,1,0.588,0.731,-1.456*
1,1,0.588,-0.731,-1.456*
%
%ADD50ROUNDEDRECTD50*%
G04:AMPARAMS|DCode=51|XSize=1.31mm|YSize=1.56mm|CornerRadius=0.201mm|HoleSize=0mm|Usage=FLASHONLY|Rotation=270.000|XOffset=0mm|YOffset=0mm|HoleType=Round|Shape=RoundedRectangle|*
%AMROUNDEDRECTD51*
21,1,1.310,1.158,0,0,270.0*
21,1,0.907,1.560,0,0,270.0*
1,1,0.403,-0.579,-0.454*
1,1,0.403,-0.579,0.454*
1,1,0.403,0.579,0.454*
1,1,0.403,0.579,-0.454*
%
%ADD51ROUNDEDRECTD51*%
G04:AMPARAMS|DCode=52|XSize=1.38mm|YSize=1.97mm|CornerRadius=0.21mm|HoleSize=0mm|Usage=FLASHONLY|Rotation=270.000|XOffset=0mm|YOffset=0mm|HoleType=Round|Shape=RoundedRectangle|*
%AMROUNDEDRECTD52*
21,1,1.380,1.550,0,0,270.0*
21,1,0.960,1.970,0,0,270.0*
1,1,0.420,-0.775,-0.480*
1,1,0.420,-0.775,0.480*
1,1,0.420,0.775,0.480*
1,1,0.420,0.775,-0.480*
%
%ADD52ROUNDEDRECTD52*%
G04:AMPARAMS|DCode=53|XSize=11.53mm|YSize=8.99mm|CornerRadius=1.161mm|HoleSize=0mm|Usage=FLASHONLY|Rotation=180.000|XOffset=0mm|YOffset=0mm|HoleType=Round|Shape=RoundedRectangle|*
%AMROUNDEDRECTD53*
21,1,11.530,6.668,0,0,180.0*
21,1,9.208,8.990,0,0,180.0*
1,1,2.322,-4.604,3.334*
1,1,2.322,4.604,3.334*
1,1,2.322,4.604,-3.334*
1,1,2.322,-4.604,-3.334*
%
%ADD53ROUNDEDRECTD53*%
G04:AMPARAMS|DCode=54|XSize=2.18mm|YSize=3.91mm|CornerRadius=0.31mm|HoleSize=0mm|Usage=FLASHONLY|Rotation=180.000|XOffset=0mm|YOffset=0mm|HoleType=Round|Shape=RoundedRectangle|*
%AMROUNDEDRECTD54*
21,1,2.180,3.290,0,0,180.0*
21,1,1.560,3.910,0,0,180.0*
1,1,0.620,-0.780,1.645*
1,1,0.620,0.780,1.645*
1,1,0.620,0.780,-1.645*
1,1,0.620,-0.780,-1.645*
%
%ADD54ROUNDEDRECTD54*%
G04:AMPARAMS|DCode=55|XSize=2.25mm|YSize=4.63mm|CornerRadius=0.319mm|HoleSize=0mm|Usage=FLASHONLY|Rotation=270.000|XOffset=0mm|YOffset=0mm|HoleType=Round|Shape=RoundedRectangle|*
%AMROUNDEDRECTD55*
21,1,2.250,3.993,0,0,270.0*
21,1,1.613,4.630,0,0,270.0*
1,1,0.638,-1.996,-0.806*
1,1,0.638,-1.996,0.806*
1,1,0.638,1.996,0.806*
1,1,0.638,1.996,-0.806*
%
%ADD55ROUNDEDRECTD55*%
G04:AMPARAMS|DCode=56|XSize=1.02mm|YSize=1.18mm|CornerRadius=0.165mm|HoleSize=0mm|Usage=FLASHONLY|Rotation=180.000|XOffset=0mm|YOffset=0mm|HoleType=Round|Shape=RoundedRectangle|*
%AMROUNDEDRECTD56*
21,1,1.020,0.850,0,0,180.0*
21,1,0.690,1.180,0,0,180.0*
1,1,0.330,-0.345,0.425*
1,1,0.330,0.345,0.425*
1,1,0.330,0.345,-0.425*
1,1,0.330,-0.345,-0.425*
%
%ADD56ROUNDEDRECTD56*%
G04:AMPARAMS|DCode=57|XSize=1.1mm|YSize=1.5mm|CornerRadius=0.175mm|HoleSize=0mm|Usage=FLASHONLY|Rotation=270.000|XOffset=0mm|YOffset=0mm|HoleType=Round|Shape=RoundedRectangle|*
%AMROUNDEDRECTD57*
21,1,1.100,1.150,0,0,270.0*
21,1,0.750,1.500,0,0,270.0*
1,1,0.350,-0.575,-0.375*
1,1,0.350,-0.575,0.375*
1,1,0.350,0.575,0.375*
1,1,0.350,0.575,-0.375*
%
%ADD57ROUNDEDRECTD57*%
G04:AMPARAMS|DCode=58|XSize=1.15mm|YSize=1.17mm|CornerRadius=0.181mm|HoleSize=0mm|Usage=FLASHONLY|Rotation=90.000|XOffset=0mm|YOffset=0mm|HoleType=Round|Shape=RoundedRectangle|*
%AMROUNDEDRECTD58*
21,1,1.150,0.807,0,0,90.0*
21,1,0.788,1.170,0,0,90.0*
1,1,0.363,0.404,0.394*
1,1,0.363,0.404,-0.394*
1,1,0.363,-0.404,-0.394*
1,1,0.363,-0.404,0.394*
%
%ADD58ROUNDEDRECTD58*%
G04:AMPARAMS|DCode=59|XSize=1.86mm|YSize=2.92mm|CornerRadius=0.27mm|HoleSize=0mm|Usage=FLASHONLY|Rotation=270.000|XOffset=0mm|YOffset=0mm|HoleType=Round|Shape=RoundedRectangle|*
%AMROUNDEDRECTD59*
21,1,1.860,2.380,0,0,270.0*
21,1,1.320,2.920,0,0,270.0*
1,1,0.540,-1.190,-0.660*
1,1,0.540,-1.190,0.660*
1,1,0.540,1.190,0.660*
1,1,0.540,1.190,-0.660*
%
%ADD59ROUNDEDRECTD59*%
G04:AMPARAMS|DCode=60|XSize=0.97mm|YSize=1.3mm|CornerRadius=0.268mm|HoleSize=0mm|Usage=FLASHONLY|Rotation=0.000|XOffset=0mm|YOffset=0mm|HoleType=Round|Shape=RoundedRectangle|*
%AMROUNDEDRECTD60*
21,1,0.970,0.765,0,0,0.0*
21,1,0.435,1.300,0,0,0.0*
1,1,0.535,0.217,-0.383*
1,1,0.535,-0.217,-0.383*
1,1,0.535,-0.217,0.383*
1,1,0.535,0.217,0.383*
%
%ADD60ROUNDEDRECTD60*%
%ADD61C,1.800*%
%ADD62R,1.800X1.800*%
%ADD63C,1.903*%
%ADD64C,2.800*%
%ADD65R,2.900X2.900*%
%ADD66R,1.600X1.600*%
%ADD67C,2.100*%
%ADD68C,2.203*%
%ADD69R,0.100X0.100*%
%ADD70R,2.000X2.000*%
%ADD71C,2.000*%
D20*
X109616Y66509D02*
D03*
X112616D02*
D03*
X128250Y61025D02*
D03*
X125250D02*
D03*
X147725Y41325D02*
D03*
X144725D02*
D03*
D21*
X81317Y95753D02*
D03*
Y101983D02*
D03*
D22*
X82442Y106289D02*
D03*
Y104339D02*
D03*
X139000Y97560D02*
D03*
Y95610D02*
D03*
D23*
Y91342D02*
D03*
Y93357D02*
D03*
X81000Y63842D02*
D03*
Y65857D02*
D03*
X117450Y54932D02*
D03*
Y52917D02*
D03*
X113925Y52893D02*
D03*
Y54908D02*
D03*
X151086Y97797D02*
D03*
Y95782D02*
D03*
X80450Y57993D02*
D03*
Y60007D02*
D03*
X66818Y61572D02*
D03*
Y63588D02*
D03*
X66332Y47743D02*
D03*
Y49757D02*
D03*
D24*
X57625Y71931D02*
D03*
X55425D02*
D03*
Y68231D02*
D03*
X57625D02*
D03*
D25*
X74502Y57195D02*
D03*
Y58465D02*
D03*
Y59735D02*
D03*
Y61005D02*
D03*
X69642Y57195D02*
D03*
Y58465D02*
D03*
Y59735D02*
D03*
Y61005D02*
D03*
X122320Y53930D02*
D03*
Y52660D02*
D03*
Y51390D02*
D03*
Y50120D02*
D03*
X127180Y53930D02*
D03*
Y52660D02*
D03*
Y51390D02*
D03*
Y50120D02*
D03*
D26*
X140250Y82502D02*
D03*
Y85502D02*
D03*
X117250Y47775D02*
D03*
Y50775D02*
D03*
D27*
X55312Y66175D02*
D03*
X56912D02*
D03*
X56931Y74050D02*
D03*
X55331D02*
D03*
X58300Y52875D02*
D03*
X59900D02*
D03*
X68650Y65925D02*
D03*
X70250D02*
D03*
X68550Y74025D02*
D03*
X70150D02*
D03*
X60375Y75966D02*
D03*
X58775D02*
D03*
X60375Y74087D02*
D03*
X58775D02*
D03*
D28*
X61975Y45475D02*
D03*
X52875D02*
D03*
X61975Y49775D02*
D03*
X52875D02*
D03*
D29*
X60450Y72725D02*
D03*
Y72225D02*
D03*
Y71725D02*
D03*
Y71225D02*
D03*
Y70725D02*
D03*
Y70225D02*
D03*
Y69725D02*
D03*
Y69225D02*
D03*
Y68725D02*
D03*
Y68225D02*
D03*
Y67725D02*
D03*
Y67225D02*
D03*
X68550D02*
D03*
Y67725D02*
D03*
Y68225D02*
D03*
Y68725D02*
D03*
Y69225D02*
D03*
Y69725D02*
D03*
Y70225D02*
D03*
Y70725D02*
D03*
Y71225D02*
D03*
Y71725D02*
D03*
Y72225D02*
D03*
Y72725D02*
D03*
D30*
X61750Y65925D02*
D03*
X62250D02*
D03*
X62750D02*
D03*
X63250D02*
D03*
X63750D02*
D03*
X64250D02*
D03*
X64750D02*
D03*
X65250D02*
D03*
X65750D02*
D03*
X66250D02*
D03*
X66750D02*
D03*
X67250D02*
D03*
Y74025D02*
D03*
X66750D02*
D03*
X66250D02*
D03*
X65750D02*
D03*
X65250D02*
D03*
X64750D02*
D03*
X64250D02*
D03*
X63750D02*
D03*
X63250D02*
D03*
X62750D02*
D03*
X62250D02*
D03*
X61750D02*
D03*
D31*
X59875Y81361D02*
D03*
Y79961D02*
D03*
X59950Y85825D02*
D03*
Y87225D02*
D03*
D32*
X60875Y55625D02*
D03*
Y58475D02*
D03*
X83902Y83184D02*
D03*
Y80334D02*
D03*
X59825Y93275D02*
D03*
Y90425D02*
D03*
D33*
X83350Y67900D02*
D03*
X77450Y67900D02*
D03*
Y68550D02*
D03*
Y71800D02*
D03*
Y71150D02*
D03*
Y70500D02*
D03*
X83350Y68550D02*
D03*
Y71800D02*
D03*
Y71150D02*
D03*
Y70500D02*
D03*
X77450Y69850D02*
D03*
Y69200D02*
D03*
X83350Y69850D02*
D03*
Y69200D02*
D03*
D34*
X135564Y60825D02*
D03*
X131804D02*
D03*
X107930Y78341D02*
D03*
X104170D02*
D03*
X97355Y60700D02*
D03*
X93595D02*
D03*
X90820Y79200D02*
D03*
X94580D02*
D03*
D35*
X88675Y75290D02*
D03*
Y74020D02*
D03*
Y72750D02*
D03*
Y71480D02*
D03*
Y70210D02*
D03*
Y68940D02*
D03*
Y67670D02*
D03*
Y66400D02*
D03*
X93575Y75290D02*
D03*
Y74020D02*
D03*
Y72750D02*
D03*
Y71480D02*
D03*
Y70210D02*
D03*
Y68940D02*
D03*
Y67670D02*
D03*
Y66400D02*
D03*
D36*
X55175Y89350D02*
D03*
X53275D02*
D03*
Y91800D02*
D03*
X54225D02*
D03*
X55175D02*
D03*
D37*
X52000Y85000D02*
D03*
X58000D02*
D03*
D38*
X119700Y49404D02*
D03*
Y51004D02*
D03*
Y52825D02*
D03*
Y54425D02*
D03*
X59075Y63700D02*
D03*
Y62100D02*
D03*
D39*
X134025Y49175D02*
D03*
X137125D02*
D03*
D40*
X129568D02*
D03*
X131583D02*
D03*
X125118Y55925D02*
D03*
X127132D02*
D03*
X104168Y60000D02*
D03*
X106183D02*
D03*
X104168Y75300D02*
D03*
X106183D02*
D03*
X90757Y60000D02*
D03*
X88743D02*
D03*
X72418Y69250D02*
D03*
X74433D02*
D03*
X72567Y72550D02*
D03*
X74582D02*
D03*
X76507Y66275D02*
D03*
X74493D02*
D03*
X134018Y51450D02*
D03*
X136033D02*
D03*
X96082Y63660D02*
D03*
X94067D02*
D03*
D41*
X129850Y53325D02*
D03*
X131540D02*
D03*
X125235Y58325D02*
D03*
X126925D02*
D03*
X83421Y73725D02*
D03*
X81731D02*
D03*
X96555Y69175D02*
D03*
X98245D02*
D03*
X86405Y77625D02*
D03*
X88095D02*
D03*
X83421Y76036D02*
D03*
X81731D02*
D03*
X77481D02*
D03*
X79171D02*
D03*
X77481Y73725D02*
D03*
X79171D02*
D03*
X86405Y80050D02*
D03*
X88095D02*
D03*
D42*
X129878Y55949D02*
D03*
X132878D02*
D03*
X142097Y41301D02*
D03*
X139097D02*
D03*
D43*
X150455Y49160D02*
D03*
D44*
X139275Y46620D02*
D03*
Y51700D02*
D03*
D45*
X147425Y73900D02*
D03*
Y61700D02*
D03*
D46*
X114037Y72625D02*
D03*
X116887D02*
D03*
X93675Y82350D02*
D03*
X90825D02*
D03*
X52975Y80175D02*
D03*
X55825D02*
D03*
D47*
X115855Y80750D02*
D03*
Y74750D02*
D03*
X88150Y86350D02*
D03*
Y92350D02*
D03*
X80350D02*
D03*
Y86350D02*
D03*
D48*
X142350Y90775D02*
D03*
X141400Y92775D02*
D03*
X143300D02*
D03*
D49*
X147986Y99795D02*
D03*
Y96035D02*
D03*
D50*
X151583Y89600D02*
D03*
X147383D02*
D03*
D51*
X141586Y95820D02*
D03*
Y97510D02*
D03*
X137650Y85542D02*
D03*
Y83852D02*
D03*
X65950Y58470D02*
D03*
Y56780D02*
D03*
X64250Y63545D02*
D03*
Y61855D02*
D03*
X54225Y94155D02*
D03*
Y95845D02*
D03*
D52*
X144412Y95868D02*
D03*
Y98868D02*
D03*
D53*
X105175Y44105D02*
D03*
X89774D02*
D03*
D54*
X102635Y55285D02*
D03*
X107715D02*
D03*
X92314D02*
D03*
X87234D02*
D03*
D55*
X99175Y79200D02*
D03*
Y72700D02*
D03*
D56*
X56423Y52875D02*
D03*
X54823D02*
D03*
X65356Y76400D02*
D03*
X63756D02*
D03*
D57*
X58375Y57275D02*
D03*
Y59025D02*
D03*
X81325Y81975D02*
D03*
Y83725D02*
D03*
X57250Y90575D02*
D03*
Y92325D02*
D03*
D58*
X61175Y63660D02*
D03*
Y62140D02*
D03*
D59*
X88150Y95200D02*
D03*
Y97790D02*
D03*
D60*
X136075Y56764D02*
D03*
Y53664D02*
D03*
D61*
X62748Y84100D02*
D03*
X70368D02*
D03*
X72908D02*
D03*
X65288D02*
D03*
X72990Y80875D02*
D03*
X65370D02*
D03*
X67910D02*
D03*
X75530D02*
D03*
D62*
X75448Y84100D02*
D03*
X62830Y80875D02*
D03*
D63*
X67828Y84100D02*
D03*
X70450Y80875D02*
D03*
D64*
X53250Y105000D02*
D03*
X153250D02*
D03*
Y40000D02*
D03*
X53250D02*
D03*
D65*
X133700Y86350D02*
D03*
Y103495D02*
D03*
X94200Y86350D02*
D03*
Y103495D02*
D03*
D66*
X76490Y50680D02*
D03*
X73950Y53220D02*
D03*
X71410Y50680D02*
D03*
X114145Y61020D02*
D03*
X116685Y58480D02*
D03*
X119225Y61020D02*
D03*
D67*
X80318Y46700D02*
D03*
X77818D02*
D03*
X116350Y42350D02*
D03*
X129143Y77225D02*
D03*
D68*
X136350Y42350D02*
D03*
X129143Y69725D02*
D03*
D69*
X111116Y66509D02*
D03*
X126750Y61025D02*
D03*
D70*
X150375Y84350D02*
D03*
D71*
Y80850D02*
D03*
M02*
