G04*
G04 #@! TF.GenerationSoftware,Altium Limited,Altium Designer,22.7.1 (60)*
G04*
G04 Layer_Color=16711935*
%FSLAX43Y43*%
%MOMM*%
G71*
G04*
G04 #@! TF.SameCoordinates,FFDFB18E-E83D-4000-AC95-9D070D3E5886*
G04*
G04*
G04 #@! TF.FilePolarity,Negative*
G04*
G01*
G75*
%ADD61C,1.800*%
%ADD62R,1.800X1.800*%
%ADD63C,1.903*%
%ADD64C,2.800*%
%ADD65R,2.900X2.900*%
%ADD66R,1.600X1.600*%
%ADD67C,2.100*%
%ADD68C,2.203*%
%ADD69R,0.100X0.100*%
%ADD70R,2.000X2.000*%
%ADD71C,2.000*%
D61*
X62748Y84100D02*
D03*
X70368D02*
D03*
X72908D02*
D03*
X65288D02*
D03*
X72990Y80875D02*
D03*
X65370D02*
D03*
X67910D02*
D03*
X75530D02*
D03*
D62*
X75448Y84100D02*
D03*
X62830Y80875D02*
D03*
D63*
X67828Y84100D02*
D03*
X70450Y80875D02*
D03*
D64*
X53250Y105000D02*
D03*
X153250D02*
D03*
Y40000D02*
D03*
X53250D02*
D03*
D65*
X133700Y86350D02*
D03*
Y103495D02*
D03*
X94200Y86350D02*
D03*
Y103495D02*
D03*
D66*
X76490Y50680D02*
D03*
X73950Y53220D02*
D03*
X71410Y50680D02*
D03*
X114145Y61020D02*
D03*
X116685Y58480D02*
D03*
X119225Y61020D02*
D03*
D67*
X80318Y46700D02*
D03*
X77818D02*
D03*
X116350Y42350D02*
D03*
X129143Y77225D02*
D03*
D68*
X136350Y42350D02*
D03*
X129143Y69725D02*
D03*
D69*
X111116Y66509D02*
D03*
X126750Y61025D02*
D03*
D70*
X150375Y84350D02*
D03*
D71*
Y80850D02*
D03*
M02*
